<?xml version="1.0" encoding="UTF-8"?>
<svg id="Layer_1" data-name="Layer 1" xmlns="http://www.w3.org/2000/svg" version="1.1" viewBox="0 0 210.16 211.62">
  <defs>
    <style>
      .cls-1 {
        fill: #0c0e0e;
      }

      .cls-1, .cls-2, .cls-3, .cls-4 {
        stroke-width: 0px;
      }

      .cls-2 {
        fill: #2f89c8;
      }

      .cls-3 {
        fill: #2f88c8;
      }

      .cls-4 {
        fill: #f5a923;
      }
    </style>
  </defs>
  <path class="cls-1" d="M162.42,74.49c2.93-8.3,5.23-16.39,4.22-25.08-2.14-18.39-15.72-33.36-34.01-37.18-17.59-3.67-36.03,4.67-45.15,20.41-3.65,6.3-3.62,6.24-10,2.97-9.63-4.93-19.09-4.43-27.76,1.97-8.43,6.22-12.27,14.83-10.35,25.31.78,4.24-.27,5.56-4.46,6.46-15.35,3.28-25.49,17.2-23.91,32.1,1.62,15.32,14.39,26.82,30.21,27.09,6.16.11,12.32.1,18.48-.01,3.96-.07,5.95,1.73,5.91,5.63-.04,3.75-2.24,5.36-5.8,5.26-8.47-.25-16.97.58-25.42-.63C17.09,136.32,2.82,121.62.41,104.28c-1.27-9.14.49-17.52,4.74-25.48,4.3-8.06,10.83-13.88,19.13-17.55,2.61-1.15,3.64-2.46,3.93-5.38,2.51-24.81,24.52-39.51,48.45-32.39,2.37.71,3.45.26,4.87-1.61,8.17-10.75,19.1-16.78,32.12-20.41,27.94-7.8,63.55,16.9,63.74,49.54.05,8.49.9,12.94,10.32,16.23,16.59,5.81,25.2,24.59,21.66,41.52-3.72,17.78-18.71,30.28-36.92,30.65-7.32.15-14.65.02-21.97.03-3.67,0-7.02-.84-6.98-5.23.04-4.37,3.05-5.77,7.17-5.68,6.66.15,13.32.08,19.97.04,16.29-.11,29.17-12.41,28.59-27.68-.66-17.55-16.2-28.39-30.05-26.41-2.08.3-4.24.04-6.76.04Z"/>
  <path class="cls-4" d="M99.02,140.56h31.07c-2.84,4.79-5.23,8.88-7.69,12.94-10.76,17.79-21.54,35.57-32.32,53.36-.34.57-.71,1.12-1.07,1.68-1.92,2.98-4.51,4.04-7.63,2.08-3.07-1.93-3.43-4.81-1.64-7.81,4.77-8,9.64-15.94,14.46-23.92,5.39-8.92,10.76-17.85,16.6-27.56h-33c3.17-4.47,5.74-8.07,8.28-11.67,9.48-13.47,18.97-26.93,28.41-40.43,2.23-3.19,4.97-4.68,8.41-2.22,3.18,2.27,2.98,5.29.79,8.3-.39.54-.74,1.1-1.13,1.65-7.1,10.06-14.2,20.12-21.29,30.18-.57.8-1.08,1.64-2.25,3.42Z"/>
  <path class="cls-2" d="M171.18,152.7c4.34.15,6.84,3.62,5.16,7.47-3.52,8.06-7.41,15.98-11.41,23.82-1.4,2.75-4.18,3.29-6.91,1.9-2.68-1.36-4-3.74-2.67-6.64,3.66-8,7.47-15.94,11.35-23.84.93-1.9,2.71-2.9,4.48-2.71Z"/>
  <path class="cls-3" d="M20.53,180.4c.25-.68.57-1.79,1.06-2.83,3.26-6.9,6.59-13.78,9.83-20.69,1.66-3.54,4.3-5.37,7.97-3.57,3.4,1.67,3.73,4.72,2.09,8.09-3.42,7.01-6.72,14.09-10.13,21.1-1.33,2.74-3.34,4.68-6.7,3.84-2.76-.69-4.12-2.62-4.1-5.95Z"/>
  <path class="cls-2" d="M145.15,152.73c4.09.14,6.65,3.7,5,7.42-3.49,7.89-7.26,15.67-11.17,23.36-1.43,2.81-4.11,4-7.18,2.4-3.19-1.67-3.88-4.37-2.36-7.59,3.48-7.35,6.98-14.69,10.51-22.01,1.08-2.24,2.71-3.78,5.19-3.57Z"/>
  <path class="cls-2" d="M68.57,158.66c-.22.63-.52,1.75-1,2.79-3.25,6.91-6.54,13.8-9.8,20.7-1.6,3.39-3.95,5.64-7.85,3.79-3.81-1.8-3.87-4.92-2.17-8.41,3.42-7.02,6.73-14.08,10.12-21.11,1.39-2.89,3.68-4.39,6.87-3.48,2.44.7,3.83,2.53,3.83,5.72Z"/>
</svg>